<svg xmlns="http://www.w3.org/2000/svg"  viewBox="0 0 100 100" width="50px" height="50px"><circle cx="77" cy="13" r="1" fill="#f1bc19"/><circle cx="50" cy="50" r="37" fill="#e6edb7"/><circle cx="83" cy="15" r="4" fill="#f1bc19"/><circle cx="87" cy="24" r="2" fill="#88ae45"/><circle cx="81" cy="76" r="2" fill="#fbcd59"/><circle cx="15" cy="63" r="4" fill="#fbcd59"/><circle cx="25" cy="87" r="2" fill="#88ae45"/><circle cx="18.5" cy="51.5" r="2.5" fill="#fff"/><circle cx="79.5" cy="33.5" r="1.5" fill="#fff"/><path fill="#55a7f9" d="M37.126,72.369c-2.499,0-4.533-1.998-4.533-4.453V32.084c0-2.456,2.034-4.453,4.533-4.453h18.679	l11.603,11.423v28.861c0,2.456-2.034,4.453-4.533,4.453C62.875,72.369,37.126,72.369,37.126,72.369z"/><polygon fill="#2d80d3" points="55.373,39.57 67.176,51.372 67.176,39.637"/><polyline fill="#aae1e2" points="55.792,28.263 55.792,39.57 67.175,39.57"/><path fill="#472b29" d="M67.175,40.27H55.792c-0.387,0-0.7-0.313-0.7-0.7V28.263c0-0.387,0.313-0.7,0.7-0.7 s0.7,0.313,0.7,0.7V38.87h10.683c0.387,0,0.7,0.313,0.7,0.7S67.562,40.27,67.175,40.27z"/><path fill="#472b29" d="M55.546,28.263l5.718,5.629l5.513,5.427v28.597c0,2.107-1.751,3.822-3.902,3.822H37.125	c-2.152,0-3.902-1.715-3.902-3.822V32.084c0-2.107,1.751-3.822,3.902-3.822h0.75h7.098L55.546,28.263 M56.064,27H44.973h-7.098	h-0.75c-2.84,0-5.165,2.287-5.165,5.084v35.831c0,2.796,2.324,5.084,5.165,5.084h25.748c2.841,0,5.166-2.287,5.166-5.084V38.79	C63.381,34.205,60.721,31.585,56.064,27L56.064,27z"/><path fill="#472b29" d="M46.843,31.284h-5.412c-0.124,0-0.225-0.101-0.225-0.225s0.101-0.225,0.225-0.225h5.412	c0.124,0,0.225,0.101,0.225,0.225S46.968,31.284,46.843,31.284z"/><path fill="#472b29" d="M61.528,69.167H38.472c-1.477,0-2.678-1.201-2.678-2.678V33.511c0-1.477,1.201-2.678,2.678-2.678	h1.155c0.124,0,0.225,0.101,0.225,0.225s-0.101,0.225-0.225,0.225h-1.155c-1.228,0-2.227,0.998-2.227,2.227V66.49	c0,1.228,0.998,2.227,2.227,2.227h23.057c1.228,0,2.227-0.998,2.227-2.227V56.314c0-0.124,0.101-0.225,0.225-0.225	s0.225,0.101,0.225,0.225v10.175C64.206,67.965,63.004,69.167,61.528,69.167z"/><g><path fill="#472b29" d="M63.98,54.735c-0.124,0-0.225-0.101-0.225-0.225V50c0-0.124,0.101-0.225,0.225-0.225 s0.225,0.101,0.225,0.225v4.51C64.206,54.634,64.105,54.735,63.98,54.735z"/></g><g><path fill="#472b29" d="M63.98,48.045c-0.124,0-0.225-0.101-0.225-0.225v-2.029c0-0.124,0.101-0.225,0.225-0.225 s0.225,0.101,0.225,0.225v2.029C64.206,47.944,64.105,48.045,63.98,48.045z"/></g><g><rect width="19.167" height="1.804" x="40.333" y="52.706" fill="#fff"/><path fill="#472b29" d="M59.5,54.76H40.333c-0.138,0-0.25-0.112-0.25-0.25v-1.804c0-0.138,0.112-0.25,0.25-0.25H59.5 c0.138,0,0.25,0.112,0.25,0.25v1.804C59.75,54.648,59.638,54.76,59.5,54.76z M40.583,54.26H59.25v-1.304H40.583V54.26z"/></g><g><rect width="19.167" height="1.804" x="40.333" y="48.775" fill="#fff"/><path fill="#472b29" d="M59.5,50.829H40.333c-0.138,0-0.25-0.112-0.25-0.25v-1.804c0-0.138,0.112-0.25,0.25-0.25H59.5 c0.138,0,0.25,0.112,0.25,0.25v1.804C59.75,50.717,59.638,50.829,59.5,50.829z M40.583,50.329H59.25v-1.304H40.583V50.329z"/></g><g><rect width="19.167" height="1.804" x="40.333" y="56.716" fill="#fff"/><path fill="#472b29" d="M59.5,58.77H40.333c-0.138,0-0.25-0.112-0.25-0.25v-1.804c0-0.138,0.112-0.25,0.25-0.25H59.5 c0.138,0,0.25,0.112,0.25,0.25v1.804C59.75,58.658,59.638,58.77,59.5,58.77z M40.583,58.27H59.25v-1.304H40.583V58.27z"/></g><g><rect width="13.104" height="1.804" x="40.333" y="60.529" fill="#fff"/><path fill="#472b29" d="M53.438,62.583H40.333c-0.138,0-0.25-0.112-0.25-0.25v-1.804c0-0.138,0.112-0.25,0.25-0.25h13.104 c0.138,0,0.25,0.112,0.25,0.25v1.804C53.688,62.472,53.576,62.583,53.438,62.583z M40.583,62.083h12.604v-1.304H40.583V62.083z"/></g></svg>